<svg xmlns="http://www.w3.org/2000/svg" width="64" height="64" viewBox="0 0 64 64" role="img" aria-label="Brumel Dev icon </BD>">
  <defs>
    <linearGradient id="g" x1="0%" y1="0%" x2="100%" y2="100%">
      <stop offset="0%" stop-color="#2e69be" />
      <stop offset="100%" stop-color="#163f78" />
    </linearGradient>
  </defs>
  <rect width="64" height="64" rx="10" fill="#0c0c11" />
  <g fill="none" stroke="url(#g)" stroke-width="5" stroke-linecap="round" stroke-linejoin="round">
    <path d="M10 20L20 32L10 44" />
    <path d="M23 18L31 46" />
    <path d="M34 18h8c5 0 8 3 8 8s-3 8-8 8h-8zM34 34h9c5 0 8 3 8 8s-3 8-8 8h-9z" />
    <path d="M50 20h6c5 0 8 4 8 12s-3 12-8 12h-6z" />
  </g>
</svg>
